<svg width="32" height="32" viewBox="0 0 32 32" fill="none" xmlns="http://www.w3.org/2000/svg">
<path d="M12.5412 21.999H9C7.4087 21.999 5.88258 21.3669 4.75736 20.2417C3.63214 19.1164 3 17.5903 3 15.999C3 14.4077 3.63214 12.8816 4.75736 11.7564C5.88258 10.6312 7.4087 9.99902 9 9.99902H12.4631" stroke="#F7F7F7" stroke-width="2.25" stroke-linecap="round" stroke-linejoin="round"/>
<path d="M19.5371 9.99902H23.0002C24.5915 9.99902 26.1177 10.6312 27.2429 11.7564C28.3681 12.8816 29.0002 14.4077 29.0002 15.999C29.0002 17.5903 28.3681 19.1164 27.2429 20.2417C26.1177 21.3669 24.5915 21.999 23.0002 21.999H19.459" stroke="#F7F7F7" stroke-width="2.25" stroke-linecap="round" stroke-linejoin="round"/>
<path d="M10.5664 15.9982H21.5577" stroke="#F7F7F7" stroke-width="2.25" stroke-linecap="round" stroke-linejoin="round"/>
</svg>
