<svg width="24" height="24" viewBox="0 0 24 24" fill="none" xmlns="http://www.w3.org/2000/svg">
<g clip-path="url(#clip0_1_650)">
<path d="M15.3378 10.9022C14.396 10.3817 13.3948 9.98519 12.4034 9.57378C11.8284 9.33585 11.2782 9.05827 10.7925 8.67164C9.8358 7.90829 10.0192 6.66909 11.1394 6.17837C11.4567 6.03958 11.7888 5.99497 12.1258 5.97514C13.4245 5.90575 14.6588 6.14367 15.8335 6.70875C16.4184 6.99128 16.6117 6.90206 16.81 6.29238C17.0182 5.64799 17.1917 4.9937 17.385 4.34436C17.5139 3.90816 17.3553 3.62066 16.9438 3.43726C16.1904 3.10516 15.4171 2.86723 14.6042 2.73835C13.5435 2.57478 13.5435 2.56982 13.5385 1.50411C13.5336 0.00220305 13.5336 0.00220302 12.0267 0.00220302C11.8086 0.00220302 11.5905 -0.00275378 11.3724 0.00220302C10.6685 0.0220302 10.5496 0.14595 10.5297 0.854772C10.5198 1.17201 10.5297 1.48924 10.5248 1.81143C10.5198 2.75322 10.5149 2.73835 9.61274 3.0655C7.43175 3.85859 6.0835 5.34563 5.93975 7.72489C5.81088 9.83153 6.91129 11.2541 8.64121 12.2901C9.70692 12.9295 10.8866 13.3062 12.0168 13.8069C12.4579 14.0002 12.8793 14.2233 13.2461 14.5306C14.3316 15.4278 14.1333 16.9197 12.8446 17.4848C12.1556 17.7872 11.4269 17.8615 10.6785 17.7674C9.52352 17.6236 8.41815 17.3212 7.37723 16.781C6.76754 16.4637 6.58909 16.548 6.38091 17.2072C6.20246 17.7773 6.04385 18.3523 5.88523 18.9272C5.67209 19.7005 5.7514 19.8839 6.48996 20.2458C7.43175 20.7018 8.43798 20.9348 9.46404 21.0983C10.267 21.2272 10.2918 21.2619 10.3017 22.0946C10.3067 22.4714 10.3067 22.853 10.3116 23.2297C10.3166 23.7056 10.5446 23.9832 11.0353 23.9931C11.5905 24.003 12.1506 24.003 12.7058 23.9881C13.1618 23.9782 13.3948 23.7304 13.3948 23.2694C13.3948 22.7539 13.4196 22.2334 13.3997 21.7179C13.3749 21.1925 13.603 20.9248 14.1086 20.786C15.2734 20.4688 16.2648 19.8443 17.0281 18.9124C19.1496 16.3348 18.3417 12.5627 15.3378 10.9022Z" fill="white"/>
</g>
<defs>
<clipPath id="clip0_1_650">
<rect width="24" height="24" fill="white"/>
</clipPath>
</defs>
</svg>
