<svg width="40" height="40" viewBox="0 0 40 40" fill="none" xmlns="http://www.w3.org/2000/svg">
<path d="M32.3142 15.4225C32.2415 15.2942 32.1361 15.1876 32.0087 15.1133C31.8814 15.0391 31.7366 15 31.5892 15H20.6725L22.5027 1.01604C22.5223 0.828891 22.4784 0.640574 22.378 0.481414C22.2776 0.322255 22.1266 0.201514 21.9492 0.138632C21.7719 0.0757498 21.5785 0.0743861 21.4003 0.13476C21.222 0.195134 21.0693 0.313733 20.9667 0.471461L7.69082 23.7302C7.61319 23.8565 7.57064 24.0012 7.56756 24.1494C7.56448 24.2976 7.60099 24.4439 7.67331 24.5733C7.74564 24.7027 7.85116 24.8104 7.97901 24.8854C8.10685 24.9604 8.25239 25 8.40061 25H19.1542L17.7037 39.005C17.6895 39.1915 17.738 39.3774 17.8416 39.5332C17.9452 39.6889 18.0979 39.8055 18.2754 39.8645C18.453 39.9234 18.6451 39.9213 18.8213 39.8585C18.9975 39.7956 19.1476 39.6757 19.2477 39.5177L32.3042 16.2615C32.3799 16.135 32.4207 15.9907 32.4224 15.8433C32.4242 15.6959 32.3868 15.5507 32.3142 15.4225Z" fill="#2C6DF5"/>
</svg>
