<svg width="150" height="68" viewBox="0 0 150 68" fill="none" xmlns="http://www.w3.org/2000/svg">
<path d="M15.0909 10.5285C14.5406 12.684 13.6877 15.3092 12.2019 18.0726C11.4591 19.5096 10.6612 20.7531 9.8908 21.8584C8.57015 23.5994 6.8368 26.1417 5.07593 29.4025C4.41561 30.646 3.45263 32.4699 2.68225 34.5424C2.07695 36.1728 0.151005 41.3403 0.921385 47.0882C2.02193 55.3507 8.07491 60.463 9.56064 61.7065C16.6316 67.6755 24.7206 67.8689 28.4349 67.9794C31.544 68.0623 39.633 68.1452 47.3092 62.8395C49.4828 61.3473 53.0871 58.7773 55.4808 53.9967C60.103 44.767 56.2236 35.2056 55.8109 34.2108C55.1506 32.6357 53.9675 30.646 51.6564 26.6667C48.9325 22.0242 47.832 20.6425 47.0066 17.6857C45.9886 13.9551 46.4013 11.2746 46.0436 11.247C45.6309 11.2194 44.5304 15.171 44.7505 19.7583C44.9431 23.931 46.0436 24.7047 47.8045 32.4699C49.0976 38.1901 49.0151 40.0692 48.7674 41.6443C48.4923 43.2195 48.0246 46.0657 45.7134 48.387C45.1907 48.912 41.2838 52.7531 36.5789 51.2885C32.8371 50.1003 30.3334 46.0934 30.8286 42.6115C31.1588 40.3732 32.6445 38.8533 33.2223 38.273C36.2488 35.2332 39.0277 36.5044 40.5959 34.57C43.4849 30.9776 38.1197 21.3887 35.3133 16.4146C33.5525 13.2919 31.9016 10.9707 30.4985 6.6045C29.6455 3.89638 29.2603 1.60277 29.0677 0C29.0402 0.718482 28.9577 1.76857 28.7376 3.06737C27.8296 8.40071 25.4635 11.1917 22.8222 16.0829C20.8687 19.703 19.2729 22.6322 18.3375 26.6944C17.8147 29.0156 16.6316 34.1555 18.3375 39.7099C20.5936 47.0053 26.3164 50.0727 25.3809 51.4544C24.6106 52.5873 20.0708 51.178 16.9068 49.0502C16.0538 48.4699 11.5141 45.4025 10.1935 39.7376C8.8728 34.0726 11.404 28.7393 13.2475 24.9534C13.9353 23.5165 14.0729 23.4888 14.5406 22.3835C16.3015 17.8791 15.8062 13.5406 15.0909 10.5285Z" fill="white"/>
<path d="M79.7199 42.3082C79.2522 42.3082 78.7294 42.3082 78.0966 42.2806C77.4638 42.2529 76.831 42.1977 76.1706 42.1148C75.5103 42.0319 74.85 41.9213 74.2172 41.8108C73.5844 41.7003 72.9791 41.5068 72.4288 41.3134C70.9431 40.7331 70.2002 39.7659 70.2002 38.3289V19.3168C70.2002 18.7365 70.3653 18.2943 70.6679 17.9903C70.9706 17.6864 71.4108 17.4377 71.9336 17.2442C72.8415 16.9126 73.9971 16.6916 75.3727 16.5258C76.7484 16.3876 78.1791 16.3047 79.6373 16.3047C83.1041 16.3047 85.7729 16.885 87.6163 18.0456C89.4872 19.2062 90.4227 21.0301 90.4227 23.4619C90.4227 24.6778 90.065 25.7278 89.3771 26.6121C88.6618 27.4964 87.7263 28.132 86.5433 28.5465C87.8914 28.9334 89.0195 29.6242 89.9274 30.6191C90.8354 31.6139 91.2756 32.885 91.2756 34.4049C91.2756 37.0854 90.2851 39.075 88.3041 40.3738C86.2956 41.6726 83.4617 42.3082 79.7199 42.3082ZM77.0786 26.6398H80.0501C81.2056 26.6398 82.0585 26.4187 82.5813 25.9766C83.1041 25.5344 83.3792 24.8988 83.3792 24.0698C83.3792 23.3237 83.0765 22.7434 82.4712 22.3289C81.8659 21.8867 80.958 21.6657 79.7474 21.6657C79.3347 21.6657 78.867 21.6657 78.3442 21.6933C77.8215 21.7209 77.4087 21.7486 77.1061 21.8038V26.6398H77.0786ZM77.0786 36.588C77.4638 36.6985 77.9315 36.7814 78.5368 36.8091C79.1421 36.8367 79.6924 36.8643 80.2426 36.8643C81.3157 36.8643 82.2236 36.6432 82.939 36.2011C83.6543 35.759 84.012 35.0681 84.012 34.1009C84.012 33.2166 83.7093 32.5811 83.1316 32.1942C82.5263 31.8073 81.6183 31.6139 80.4077 31.6139H77.0786V36.588Z" fill="white"/>
<path d="M105.06 42.3084C103.464 42.3084 101.978 42.0874 100.63 41.6452C99.2545 41.2031 98.0714 40.5122 97.0534 39.6279C96.0354 38.7437 95.2375 37.6107 94.6597 36.2566C94.0819 34.9025 93.7793 33.2998 93.7793 31.5036C93.7793 29.7074 94.0819 28.1599 94.6597 26.8887C95.2375 25.5899 96.0079 24.5398 96.9434 23.7108C97.8788 22.8818 98.9794 22.2738 100.19 21.887C101.401 21.5001 102.639 21.3066 103.932 21.3066C105.363 21.3066 106.656 21.5277 107.839 21.9699C109.022 22.412 110.04 22.9923 110.893 23.7661C111.746 24.5398 112.406 25.4241 112.874 26.5018C113.341 27.5519 113.589 28.7125 113.589 29.9561C113.589 30.868 113.341 31.5865 112.819 32.0839C112.296 32.5813 111.581 32.8853 110.673 33.0234L100.658 34.5433C100.96 35.4276 101.566 36.1184 102.474 36.5606C103.382 37.0027 104.455 37.2238 105.638 37.2238C106.738 37.2238 107.784 37.0856 108.774 36.8093C109.765 36.5329 110.563 36.2013 111.195 35.8144C111.636 36.0908 111.993 36.4777 112.296 36.9474C112.599 37.4449 112.736 37.9423 112.736 38.4949C112.736 39.7108 112.158 40.6228 111.03 41.2307C110.177 41.7005 109.187 42.0044 108.114 42.1702C107.013 42.2255 105.995 42.3084 105.06 42.3084ZM103.932 26.3084C103.271 26.3084 102.721 26.4189 102.253 26.64C101.786 26.8611 101.401 27.1374 101.098 27.469C100.795 27.8006 100.575 28.1875 100.438 28.602C100.3 29.0165 100.19 29.4586 100.162 29.8732L107.096 28.7402C107.013 28.1875 106.711 27.6624 106.215 27.1098C105.693 26.5847 104.922 26.3084 103.932 26.3084Z" fill="white"/>
<path d="M133.537 35.7584C133.537 37.8309 132.766 39.4337 131.225 40.5943C129.685 41.755 127.401 42.3353 124.402 42.3353C123.274 42.3353 122.201 42.2524 121.238 42.0865C120.275 41.9207 119.422 41.672 118.734 41.3404C118.047 41.0088 117.496 40.5667 117.111 40.0693C116.726 39.5442 116.533 38.9363 116.533 38.2454C116.533 37.5822 116.671 37.0572 116.946 36.5874C117.221 36.1453 117.551 35.7584 117.909 35.4544C118.679 35.8965 119.587 36.2834 120.605 36.615C121.623 36.9466 122.779 37.1124 124.099 37.1124C124.925 37.1124 125.585 37.0019 126.025 36.7532C126.466 36.5045 126.686 36.1729 126.686 35.786C126.686 35.3991 126.521 35.0952 126.191 34.9017C125.86 34.6807 125.338 34.5149 124.567 34.3767L123.357 34.128C121.018 33.6582 119.257 32.9397 118.102 31.9449C116.946 30.9501 116.368 29.5408 116.368 27.6893C116.368 26.6945 116.588 25.7825 117.028 24.9535C117.469 24.1521 118.074 23.4613 118.844 22.9086C119.615 22.3559 120.578 21.9414 121.651 21.6374C122.751 21.3335 123.962 21.1953 125.283 21.1953C126.273 21.1953 127.209 21.2782 128.089 21.4164C128.969 21.5546 129.74 21.8033 130.373 22.0796C131.033 22.3836 131.528 22.7704 131.913 23.2402C132.299 23.71 132.491 24.2903 132.491 24.9259C132.491 25.5615 132.381 26.0865 132.133 26.5287C131.913 26.9708 131.611 27.3577 131.253 27.6616C131.033 27.5235 130.703 27.3853 130.29 27.2471C129.85 27.109 129.382 26.9708 128.859 26.8326C128.337 26.7221 127.814 26.6116 127.291 26.5287C126.768 26.4458 126.273 26.4181 125.86 26.4181C124.98 26.4181 124.292 26.5287 123.797 26.7221C123.302 26.9155 123.054 27.2471 123.054 27.6893C123.054 27.9933 123.192 28.242 123.467 28.4354C123.742 28.6288 124.237 28.7946 125.007 28.9604L126.273 29.2368C128.859 29.8447 130.703 30.6461 131.803 31.6962C132.986 32.7463 133.537 34.1004 133.537 35.7584Z" fill="white"/>
<path d="M143.744 34.8742C143.744 35.5927 143.964 36.0901 144.404 36.3941C144.845 36.6981 145.477 36.8362 146.303 36.8362C146.716 36.8362 147.128 36.8086 147.568 36.7257C148.009 36.6704 148.366 36.5599 148.697 36.4493C148.944 36.7533 149.137 37.0849 149.329 37.4442C149.494 37.8034 149.604 38.2455 149.604 38.7706C149.604 39.793 149.219 40.6497 148.449 41.2853C147.679 41.9485 146.33 42.2525 144.377 42.2525C142.011 42.2525 140.167 41.6998 138.874 40.6221C137.581 39.5443 136.948 37.7758 136.948 35.3163V17.8794C137.251 17.7965 137.664 17.7135 138.214 17.603C138.764 17.5201 139.342 17.4648 139.975 17.4648C141.158 17.4648 142.093 17.6859 142.754 18.1004C143.414 18.5149 143.744 19.3992 143.744 20.7809V23.3785H149.054C149.219 23.6825 149.384 24.0417 149.522 24.5115C149.659 24.9536 149.742 25.451 149.742 26.0037C149.742 26.9433 149.522 27.6341 149.109 28.0486C148.697 28.4631 148.119 28.6842 147.431 28.6842H143.744V34.8742Z" fill="white"/>
<path d="M79.0327 59.6892H75.1258C73.8877 59.6892 72.9247 59.2747 72.2369 58.4457C71.8792 58.0036 71.6316 57.5338 71.5215 56.9811C71.4115 56.4284 71.3564 55.7376 71.3564 54.9086C71.3564 54.0519 71.439 53.2782 71.5766 52.6426C71.7141 52.007 72.0168 51.4267 72.457 50.9569C73.1723 50.2384 74.1903 49.8516 75.511 49.8516H78.8126V50.7082H75.4009C74.6306 50.7082 74.0253 50.9016 73.53 51.2609C73.0348 51.6201 72.7321 52.1175 72.567 52.7255C72.457 53.2229 72.3745 53.9966 72.3745 55.0191C72.3745 56.0415 72.4845 56.8153 72.7046 57.3403C73.1448 58.3075 74.0803 58.8049 75.5935 58.8049H79.0327V59.6892Z" fill="white"/>
<path d="M88.8005 49.8789H93.5878C94.3032 49.8789 94.881 50.1 95.2937 50.5698C95.6789 50.9843 95.8715 51.6475 95.8715 52.5318V58.3901C95.8715 58.8599 95.7614 59.1915 95.5413 59.4126C95.3487 59.606 94.9635 59.6889 94.4408 59.6889H90.6714C89.8735 59.6889 89.2682 59.5508 88.9105 59.2468C88.3327 58.777 88.0576 57.9204 88.0576 56.6492C88.0576 55.5715 88.3328 54.7977 88.8555 54.328C89.2682 53.9964 89.8735 53.8029 90.6714 53.8029H94.9085V52.3383C94.9085 51.8686 94.7984 51.4817 94.5508 51.1777C94.3032 50.8737 93.973 50.7356 93.5053 50.7356H88.773V49.8789H88.8005ZM94.936 54.6872H90.4788C90.0111 54.6872 89.6534 54.853 89.4058 55.157C89.1857 55.4333 89.1031 55.9307 89.1031 56.6768C89.1031 57.4782 89.2407 58.0585 89.4883 58.3901C89.7084 58.6665 90.0386 58.8047 90.4513 58.8047H94.3857C94.5783 58.8047 94.7159 58.777 94.7984 58.6941C94.881 58.6112 94.936 58.5007 94.936 58.3625V54.6872Z" fill="white"/>
<path d="M105.446 59.6892V58.8326H111.059C111.609 58.8326 111.967 58.6668 112.214 58.3628C112.38 58.1417 112.462 57.7548 112.462 57.2298C112.462 56.7877 112.352 56.4561 112.104 56.2074C111.884 55.9863 111.114 55.7376 109.793 55.4336L108.087 55.0467C106.987 54.798 106.244 54.4112 105.831 53.9414C105.474 53.5269 105.309 53.0018 105.309 52.311C105.309 51.6754 105.474 51.1503 105.804 50.7082C106.079 50.349 106.382 50.1279 106.767 50.0174C107.124 49.9068 107.592 49.8516 108.17 49.8516H112.847V50.7082H107.785C107.29 50.7082 106.932 50.8187 106.684 51.0398C106.464 51.2609 106.327 51.6754 106.327 52.2004C106.327 52.7808 106.464 53.1953 106.739 53.4716C106.987 53.7203 107.537 53.9414 108.418 54.1348L110.178 54.5493C110.701 54.6599 111.086 54.7704 111.307 54.8257C111.527 54.8809 111.774 54.9638 112.077 55.0744C112.38 55.1849 112.6 55.3231 112.792 55.4612C113.26 55.8205 113.48 56.4008 113.48 57.1746C113.48 58.1694 113.205 58.8602 112.627 59.2747C112.27 59.5234 111.774 59.634 111.086 59.634H105.446V59.6892Z" fill="white"/>
<path d="M130.675 59.6887H125.888C124.76 59.6887 123.907 59.2741 123.302 58.4728C122.944 58.0306 122.752 57.5332 122.641 56.9805C122.531 56.4279 122.504 55.7094 122.504 54.8251C122.504 54.2448 122.531 53.7474 122.559 53.3605C122.586 52.9736 122.724 52.5038 122.917 52.0064C123.137 51.4814 123.412 51.0669 123.797 50.7629C124.485 50.1826 125.503 49.9062 126.851 49.9062C127.869 49.9062 128.694 50.0997 129.327 50.4589C130.373 51.1221 130.896 52.1446 130.896 53.5816C130.896 54.1895 130.758 54.6317 130.483 54.8527C130.263 55.0462 129.905 55.1567 129.437 55.1567H123.494C123.467 56.0133 123.522 56.6766 123.659 57.1463C123.797 57.6161 124.045 58.003 124.402 58.3622C124.76 58.7215 125.228 58.8596 125.833 58.8596H130.62V59.6887H130.675ZM123.549 54.2448H129.492C129.767 54.2448 129.905 54.0237 129.905 53.6092C129.905 52.8078 129.685 52.117 129.245 51.6196C129.025 51.3709 128.749 51.1498 128.447 51.0393C128.144 50.9011 127.869 50.8182 127.649 50.8182C127.429 50.7905 127.126 50.7905 126.741 50.7905C126.328 50.7905 125.998 50.8182 125.723 50.8458C125.475 50.8734 125.173 50.984 124.843 51.1774C124.512 51.3709 124.237 51.6472 124.045 51.9788C123.714 52.4209 123.549 53.1947 123.549 54.2448Z" fill="white"/>
<path d="M140.14 59.6892V58.8326H145.753C146.304 58.8326 146.661 58.6668 146.909 58.3628C147.074 58.1417 147.156 57.7548 147.156 57.2298C147.156 56.7877 147.046 56.4561 146.799 56.2074C146.579 55.9863 145.808 55.7376 144.488 55.4336L142.782 55.0467C141.681 54.798 140.938 54.4112 140.526 53.9414C140.168 53.5269 140.003 53.0018 140.003 52.311C140.003 51.6754 140.168 51.1503 140.498 50.7082C140.773 50.349 141.076 50.1279 141.461 50.0174C141.819 49.9068 142.287 49.8516 142.864 49.8516H147.542V50.7082H142.479C141.984 50.7082 141.626 50.8187 141.379 51.0398C141.158 51.2609 141.021 51.6754 141.021 52.2004C141.021 52.7808 141.159 53.1953 141.434 53.4716C141.681 53.7203 142.232 53.9414 143.112 54.1348L144.873 54.5493C145.396 54.6599 145.781 54.7704 146.001 54.8257C146.221 54.8809 146.469 54.9638 146.771 55.0744C147.074 55.1849 147.294 55.3231 147.487 55.4612C147.954 55.8205 148.174 56.4008 148.174 57.1746C148.174 58.1694 147.899 58.8602 147.322 59.2747C146.964 59.5234 146.469 59.634 145.781 59.634H140.14V59.6892Z" fill="white"/>
</svg>
