<svg width="211" height="46" viewBox="0 0 211 46" fill="none" xmlns="http://www.w3.org/2000/svg">
<path d="M19.5434 21.2773H11.8323V16.1121C11.8323 14.6102 11.7468 13.676 11.5759 13.3097C11.4171 12.9312 11.0569 12.7419 10.4952 12.7419C9.86025 12.7419 9.45729 12.9678 9.28634 13.4196C9.11539 13.8714 9.02991 14.8483 9.02991 16.3502V30.124C9.02991 31.5649 9.11539 32.5051 9.28634 32.9447C9.45729 33.3843 9.84193 33.6041 10.4403 33.6041C11.0142 33.6041 11.3866 33.3843 11.5576 32.9447C11.7407 32.5051 11.8323 31.4733 11.8323 29.8493V26.1311H19.5434V27.285C19.5434 30.3499 19.3236 32.5234 18.8841 33.8056C18.4567 35.0877 17.4981 36.2111 16.0084 37.1758C14.5309 38.1404 12.7054 38.6228 10.5318 38.6228C8.27284 38.6228 6.41069 38.2137 4.94539 37.3956C3.48009 36.5774 2.50933 35.4479 2.0331 34.0071C1.55688 32.554 1.31877 30.3743 1.31877 27.4682V18.8046C1.31877 16.6677 1.39203 15.0681 1.53856 14.0057C1.68509 12.9312 2.11858 11.8993 2.83902 10.9103C3.57167 9.92119 4.57906 9.1458 5.8612 8.58411C7.15555 8.0102 8.63916 7.72324 10.312 7.72324C12.5833 7.72324 14.4576 8.16283 15.9351 9.04201C17.4126 9.92119 18.3834 11.0202 18.8474 12.3389C19.3114 13.6455 19.5434 15.6847 19.5434 18.4566V21.2773ZM38.6473 17.321H31.4856V15.123C31.4856 14.0973 31.3941 13.444 31.2109 13.1632C31.0277 12.8823 30.7225 12.7419 30.2951 12.7419C29.8311 12.7419 29.4769 12.9312 29.2327 13.3097C29.0007 13.6882 28.8847 14.2621 28.8847 15.0314C28.8847 16.0205 29.019 16.7654 29.2877 17.266C29.5441 17.7667 30.2707 18.3711 31.4673 19.0793C34.8986 21.1185 37.0599 22.7914 37.9513 24.098C38.8427 25.4045 39.2884 27.5109 39.2884 30.4171C39.2884 32.5295 39.038 34.0864 38.5374 35.0877C38.049 36.089 37.0965 36.9316 35.6801 37.6154C34.2636 38.287 32.6151 38.6228 30.7347 38.6228C28.671 38.6228 26.9066 38.232 25.4413 37.4505C23.9882 36.669 23.0357 35.6738 22.5839 34.465C22.1321 33.2561 21.9062 31.5405 21.9062 29.3181V27.3766H29.0679V30.9849C29.0679 32.0961 29.1656 32.8104 29.3609 33.1279C29.5685 33.4454 29.9288 33.6041 30.4416 33.6041C30.9545 33.6041 31.333 33.4026 31.5772 32.9997C31.8336 32.5967 31.9619 31.9984 31.9619 31.2047C31.9619 29.4585 31.7237 28.3168 31.2475 27.7795C30.7591 27.2423 29.5563 26.3448 27.6392 25.087C25.7221 23.8171 24.4522 22.8952 23.8294 22.3213C23.2067 21.7474 22.6877 20.9537 22.2726 19.9402C21.8696 18.9267 21.6681 17.6323 21.6681 16.0571C21.6681 13.7859 21.9551 12.1252 22.529 11.0751C23.1151 10.025 24.0553 9.20686 25.3497 8.62074C26.644 8.02241 28.207 7.72324 30.0386 7.72324C32.0412 7.72324 33.7446 8.04683 35.1489 8.694C36.5653 9.34118 37.4995 10.1593 37.9513 11.1484C38.4153 12.1252 38.6473 13.792 38.6473 16.1487V17.321Z" fill="white"/>
<path d="M115.669 8.34599V38H108.929V17.9803L106.236 38H101.456L98.6168 18.4382V38H91.8765V8.34599H101.859C102.152 10.1288 102.463 12.229 102.793 14.6468L103.855 22.1931L105.614 8.34599H115.669ZM132.081 8.34599L136.495 38H128.601L128.216 32.67H125.45L124.992 38H117.006L120.926 8.34599H132.081ZM127.996 27.4132C127.605 24.0552 127.215 19.9097 126.824 14.9765C126.042 20.6423 125.554 24.7879 125.359 27.4132H127.996ZM137.814 8.34599H143.272C146.911 8.34599 149.371 8.48642 150.653 8.76727C151.948 9.04812 152.998 9.76856 153.804 10.9286C154.622 12.0764 155.031 13.9141 155.031 16.4418C155.031 18.7496 154.744 20.3004 154.17 21.0941C153.596 21.8878 152.467 22.364 150.782 22.5228C152.308 22.9013 153.334 23.4081 153.859 24.043C154.384 24.678 154.707 25.2641 154.829 25.8014C154.964 26.3264 155.031 27.7856 155.031 30.179V38H147.869V28.1459C147.869 26.5585 147.741 25.5755 147.485 25.1969C147.24 24.8184 146.587 24.6291 145.525 24.6291V38H137.814V8.34599ZM145.525 13.4196V20.0134C146.392 20.0134 146.996 19.8974 147.338 19.6654C147.692 19.4212 147.869 18.6458 147.869 17.3393V15.7091C147.869 14.7689 147.698 14.1522 147.356 13.8592C147.027 13.5661 146.416 13.4196 145.525 13.4196ZM176.406 8.34599L171.992 21.7352L176.827 38H168.86L165.746 25.2885V38H158.035V8.34599H165.746V19.8669L169.171 8.34599H176.406ZM178.183 8.34599H191.041V14.2805H185.894V19.9035H190.711V25.545H185.894V32.0655H191.553V38H178.183V8.34599ZM209.32 8.34599V14.2805H204.741V38H197.03V14.2805H192.469V8.34599H209.32Z" fill="white"/>
<path fill-rule="evenodd" clip-rule="evenodd" d="M62.2397 5.62307C61.3884 6.00145 61.0573 6.61631 61.1519 7.65685L61.1992 8.36631L58.9289 13.0015L56.6586 17.6366H50.4627H44.2667L44.0776 17.8258C43.51 18.3933 44.1722 19.5758 45.2127 19.9069C45.4965 20.0015 45.6384 20.096 45.6384 20.2379C45.6857 20.3325 46.064 22.6501 46.537 25.346C48.76 37.8798 48.4762 36.6028 49.0911 37.265C49.3276 37.5487 49.6587 37.7852 49.9897 37.9271L50.51 38.1636H65.1722H79.8343L80.3546 37.9271C81.7735 37.265 81.4424 38.5893 84.4695 21.3258C84.7059 20.0488 84.6586 20.096 85.1316 19.9541C86.1722 19.6231 86.8343 18.3933 86.2667 17.8731L86.0776 17.6839H79.8816H73.6857L71.3208 12.9541L69.0505 8.31902L69.0978 7.60956C69.2397 5.2447 65.787 4.39334 65.2194 6.66362C65.1721 6.9001 65.0303 6.9001 64.983 6.66362C64.7938 5.67037 63.3276 5.1028 62.2397 5.62307ZM65.314 8.27172C65.5032 8.6974 65.7397 8.93388 66.26 9.21767L66.6384 9.40685L68.6249 13.4744L70.6113 17.542H67.8681C66.3546 17.542 63.8951 17.542 62.3816 17.542H59.6384L61.6249 13.4744L63.6114 9.40685L64.037 9.17037C64.4627 8.93388 64.9357 8.41361 65.0303 8.03523C65.0776 7.84605 65.1722 7.84605 65.314 8.27172ZM54.5303 21.846C54.5303 21.9406 54.6249 22.792 54.7195 23.7852C54.8141 24.7785 54.8613 25.6298 54.9086 25.7244C54.9086 25.8663 54.7668 25.8663 52.8749 25.8663C51.7397 25.8663 50.8411 25.819 50.8411 25.819C50.8411 25.7717 50.1789 22.1298 50.1316 21.846C50.0843 21.7041 50.2262 21.7042 52.3546 21.7042C54.3884 21.7042 54.5303 21.7041 54.5303 21.846ZM63.1384 23.7852V25.8663H61.0573C59.4492 25.8663 58.9762 25.8663 58.9762 25.7717C58.9762 25.7244 58.8816 24.8258 58.787 23.7852C58.6924 22.7447 58.5978 21.846 58.5978 21.7988C58.5978 21.7042 59.1181 21.7042 60.8681 21.7042H63.1384V23.7852ZM71.6519 21.846C71.6519 21.9406 71.5573 22.792 71.4627 23.7852C71.3681 24.7785 71.3208 25.6298 71.3208 25.7244C71.3208 25.8663 71.1789 25.8663 69.2397 25.8663H67.1586V23.7852V21.7042H69.4289C71.51 21.7042 71.6519 21.7041 71.6519 21.846ZM80.2127 21.846C80.1654 22.0352 79.5032 25.7717 79.5032 25.819C79.5032 25.8663 78.6046 25.8663 77.4695 25.8663C75.5776 25.8663 75.4357 25.8663 75.4357 25.7244C75.4357 25.6298 75.5303 24.7785 75.5776 23.7852C75.6722 22.792 75.7668 21.9406 75.7668 21.846C75.7668 21.7041 75.9086 21.7042 78.037 21.7042C80.0708 21.7042 80.2127 21.7041 80.2127 21.846ZM55.3816 31.4947C55.4762 32.346 55.5235 33.292 55.5708 33.5758L55.6181 34.096H53.9154H52.2127L51.8343 32.1096C51.6451 31.0217 51.4559 30.0758 51.4559 30.0285C51.4559 29.9339 51.9289 29.9339 53.3005 29.9339H55.1451L55.3816 31.4947ZM63.0911 32.015V34.096H61.3884H59.6857L59.6384 33.8123C59.4492 32.5825 59.3073 30.0285 59.4492 29.9812C59.4965 29.9339 60.3478 29.9339 61.3411 29.9339H63.0911V32.015ZM70.8951 29.9812C70.9424 30.0758 70.7532 32.9136 70.6113 33.7177L70.5641 34.0487H68.8613H67.1586V32.0623C67.1586 30.9744 67.1586 30.0285 67.1586 29.9812C67.2532 29.8393 70.8005 29.8393 70.8951 29.9812ZM78.7465 29.9812C78.7465 30.0285 78.6046 30.9744 78.3681 32.0623L77.9897 34.0487H76.287H74.5843L74.6316 33.7177C74.6789 33.5285 74.7262 32.6298 74.8208 31.7312C74.9154 30.8325 74.9627 30.0285 74.9627 29.9812C75.0573 29.8393 78.7465 29.8393 78.7465 29.9812Z" fill="#2C6DF5"/>
</svg>
