<svg width="37" height="40" viewBox="0 0 37 40" fill="none" xmlns="http://www.w3.org/2000/svg">
<path fill-rule="evenodd" clip-rule="evenodd" d="M0.949492 0.183494C-0.956677 3.57505 0.0927681 9.40906 3.33088 13.4225C4.50064 14.8724 17.3009 27.6923 17.482 27.5953C17.5532 27.5573 17.7596 27.3929 17.9407 27.23L18.27 26.934L18.5697 27.1921L18.8694 27.4502L18.1143 28.2074L17.3593 28.9647L17.9351 29.5276C18.2518 29.8371 18.536 30.0994 18.5667 30.1104C18.5975 30.1214 20.3918 28.3716 22.554 26.2218L26.4854 22.3132L25.8678 21.6936L25.2502 21.0739L24.5187 21.8031L23.7873 22.5323L23.4921 22.2602L23.1969 21.9881L23.6221 21.5629L24.0473 21.1377L23.0174 20.1094L21.9876 19.0811L21.3974 19.1564C21.0729 19.1978 20.5998 19.2515 20.3464 19.2757L19.8855 19.3197L19.9288 19.027C19.9525 18.866 19.9919 18.4364 20.0163 18.0723L20.0605 17.4104L19.5989 17.4543C19.345 17.4785 18.9295 17.5181 18.6755 17.5424L18.2138 17.5865L18.2579 16.8912C18.2822 16.5087 18.3218 16.0784 18.346 15.9349L18.3899 15.674L17.7615 15.7204C17.416 15.7458 16.9707 15.7852 16.772 15.8079L16.4107 15.8492L16.4566 15.5215C16.4819 15.3413 16.5214 14.9114 16.5446 14.5663L16.5868 13.9388L16.025 13.9959C15.716 14.0272 15.2997 14.0541 15.0998 14.0555L14.7366 14.0582L14.7537 13.6817C14.763 13.4746 14.8107 13.0237 14.8595 12.6796L14.9482 12.0541L12.567 9.66291C11.2574 8.34773 10.0957 7.23034 9.98548 7.17977C9.87526 7.12927 9.26456 6.86327 8.62828 6.58872L7.47155 6.08951L4.37552 3.00965C1.0714 -0.2773 1.16506 -0.200011 0.949492 0.183494ZM1.9316 4.9565C3.32541 8.77091 4.30732 10.1879 8.58573 14.5592C9.61059 15.6063 10.8251 16.8471 11.2846 17.3165L12.1202 18.1701L11.7208 18.5671C11.5012 18.7854 11.2909 18.965 11.2536 18.966C11.0835 18.971 4.87974 12.6249 4.25254 11.8044C2.83736 9.95302 1.60194 6.72192 1.60194 4.87193C1.60194 4.18682 1.65538 4.20051 1.9316 4.9565ZM22.9614 26.6337L20.6404 28.9554L24.3645 32.6803L28.0886 36.4052L28.3032 37.0761C28.6875 38.2774 29.4323 39.1577 30.5213 39.698L31.0835 39.977L32.0401 39.9986C36.9272 40.109 38.1987 33.5593 33.5882 32.0238C32.8633 31.7824 32.7528 31.6837 28.7359 27.6883C26.8875 25.8497 25.3543 24.338 25.3288 24.3288C25.3032 24.3195 24.238 25.3567 22.9614 26.6337ZM33.0468 34.3897C34.3131 35.0357 34.3284 36.83 33.0731 37.4858C31.7186 38.1935 30.1935 36.9156 30.6243 35.4338C30.9139 34.4376 32.121 33.9173 33.0468 34.3897Z" fill="#2C6DF5"/>
</svg>
