<svg width="116" height="93" viewBox="0 0 116 93" fill="none" xmlns="http://www.w3.org/2000/svg">
<g opacity="0.5">
<path fill-rule="evenodd" clip-rule="evenodd" d="M113.058 81.5314V83.9994L112.385 83.488C108.618 80.6243 103.292 85.7953 105.538 90.1364C106.954 92.8744 110.651 93.9019 112.591 92.097L113.058 91.6623V92.2526V92.8429L114.148 92.799L115.237 92.755L115.276 85.9092L115.315 79.0635H114.187H113.058V81.5314ZM49.0503 81.4576V82.954H48.0737H47.097V83.9266V84.8992H48.0601H49.0231L49.0769 87.8545C49.1468 91.6975 49.4587 92.389 51.3235 92.8344C52.5571 93.1292 55.0604 92.6792 55.0604 92.1627C55.0604 92.0075 54.6166 90.576 54.5359 90.4711C54.5192 90.4494 54.2606 90.5336 53.9615 90.6581C51.8112 91.5528 51.1561 90.7238 51.1548 87.1063L51.1539 84.8992H52.9569H54.7599V83.9314V82.9634L52.9945 82.9213L51.229 82.8791L51.186 81.4202L51.143 79.9613H50.0967H49.0503V81.4576ZM10.7549 82.8705C10.3937 82.9872 9.83582 83.2926 9.51533 83.5492L8.93265 84.0155V83.4847V82.954H7.88088H6.8291V87.8919V92.8298H7.8681H8.90726L8.95744 89.5752C9.0207 85.4862 9.38506 84.7496 11.3445 84.7496C13.1094 84.7496 13.3489 85.2788 13.4403 89.381L13.5154 92.755L14.6047 92.799L15.6941 92.8429V89.7719C15.6941 85.6704 15.9687 85.0122 17.7689 84.7998C19.7709 84.5637 20.113 85.2324 20.1745 89.5004L20.2222 92.8298H21.4234H22.6245L22.5775 89.0515C22.525 84.8236 22.4676 84.5686 21.3503 83.5915C19.8792 82.3053 17.0825 82.4561 15.6768 83.8977L15.1545 84.4332L14.7551 83.9348C13.9541 82.935 12.0898 82.4389 10.7549 82.8705ZM28.4991 82.8066C23.8376 83.7726 23.1683 90.5778 27.5376 92.5797C29.0289 93.263 31.1626 92.9836 32.2595 91.9617L32.6727 91.5767V92.2033V92.8298H33.7245H34.7762V87.8919V82.954H33.7245H32.6727V83.4777C32.6727 84.0891 32.623 84.1097 32.1781 83.6836C31.3954 82.9337 29.7629 82.5447 28.4991 82.8066ZM40.0868 82.8013C38.1684 83.2076 37.0345 84.5549 37.2213 86.2059C37.3908 87.703 38.5156 88.4582 41.0741 88.7927C42.4945 88.9782 43.2504 89.333 43.3099 89.842C43.4594 91.1172 40.7602 91.5111 38.6054 90.5287C37.7159 90.1232 37.7786 90.0972 37.1247 91.1437L36.7291 91.7771L37.4793 92.1557C41.7774 94.3248 46.9432 91.8575 45.2038 88.4662C44.7343 87.5509 43.7247 87.0675 41.6282 86.7544C39.9669 86.5061 39.6485 86.3839 39.507 85.9394C39.1163 84.7138 41.3515 84.2585 43.5276 85.1204L44.3908 85.4623L44.8564 84.6518C45.6283 83.3083 42.8258 82.221 40.0868 82.8013ZM60.2307 82.8152C55.272 83.9999 55.2564 91.5126 60.2099 92.7773C61.7879 93.1802 64.0821 92.7829 65.1899 91.9152L65.5779 91.6113L65.1029 90.9112C64.8416 90.5262 64.6146 90.1926 64.5984 90.17C64.5822 90.1473 64.2145 90.3119 63.7814 90.5356C61.6444 91.6397 58.6665 90.6697 58.6665 88.8693C58.6665 88.8254 60.3325 88.7897 62.3689 88.7897H66.0713L65.9906 87.5552C65.7631 84.0719 63.3349 82.0737 60.2307 82.8152ZM72.133 82.8745C71.8126 82.9882 71.3225 83.3014 71.0436 83.5706L70.5365 84.06V83.507V82.954H69.4848H68.433V87.8919V92.8298H69.4746H70.5163L70.5639 89.3988C70.6243 85.0648 70.9597 84.4457 73.119 84.6828L73.9736 84.7768L74.2576 83.828C74.4547 83.1696 74.4921 82.8455 74.3797 82.7692C74.1142 82.589 72.7582 82.6526 72.133 82.8745ZM79.2512 82.8627C74.5624 83.901 73.8292 90.4789 78.1762 92.5078C79.7561 93.2452 82.5334 93.0194 83.8122 92.0496C84.0894 91.8394 83.9721 91.5387 83.0791 90.1715C83.065 90.1498 82.7374 90.3078 82.3513 90.5227C80.0281 91.8159 77.445 90.4377 77.4491 87.907C77.4532 85.264 79.916 83.933 82.4345 85.2127C82.7657 85.3809 83.0558 85.4971 83.0792 85.4708C83.5561 84.9351 84.0723 83.8009 83.8936 83.6813C82.5352 82.7725 80.9341 82.4901 79.2512 82.8627ZM88.9291 82.8163C85.1975 83.7015 83.8413 88.5959 86.5334 91.4621C88.2029 93.2396 91.1853 93.4769 92.8116 91.9617L93.2248 91.5767V92.2033V92.8298H94.2766H95.3284V87.8919V82.954H94.2766H93.2248V83.4777C93.2248 84.0813 93.0879 84.1326 92.6847 83.6804C92.0238 82.9393 90.1897 82.5173 88.9291 82.8163ZM102.045 82.8362C101.732 82.9191 101.241 83.2062 100.956 83.4744L100.437 83.9619V83.4579V82.954H99.308H98.1791L98.2186 87.8545L98.2583 92.755H99.3101H100.362L100.437 89.3134C100.533 84.9115 100.819 84.4015 103.036 84.6774L103.836 84.7769L104.097 83.8414C104.437 82.6233 103.882 82.3512 102.045 82.8362ZM30.494 84.7651C31.8911 85.1452 32.6661 86.2341 32.6661 87.817C32.6661 90.0671 30.8702 91.5205 28.9012 90.8639C25.2117 89.6336 26.7492 83.7464 30.494 84.7651ZM62.7306 84.937C63.2309 85.2728 63.6524 85.8672 63.8446 86.5078L63.9457 86.8444H61.3649H58.7842L58.8872 86.4329C59.2768 84.8785 61.4076 84.0493 62.7306 84.937ZM91.7376 84.984C93.4918 85.8777 93.9026 88.4747 92.5291 89.9885C90.6139 92.0997 87.439 90.7449 87.4407 87.817C87.442 85.3859 89.6581 83.9249 91.7376 84.984ZM111.03 84.7651C112.427 85.1452 113.246 86.2727 113.246 87.817C113.246 91.9076 107.606 92.1232 107.374 88.0416C107.243 85.7382 108.958 84.2014 111.03 84.7651Z" fill="#EAC48B" fill-opacity="0.5"/>
<ellipse cx="37.8518" cy="37.0081" rx="37.1096" ry="37.0081" fill="#EAC48B" fill-opacity="0.5"/>
<ellipse cx="78.1887" cy="37.0081" rx="37.1096" ry="37.0081" fill="#EAC48B" fill-opacity="0.5"/>
</g>
</svg>
