<svg width="23" height="23" viewBox="0 0 23 23" fill="none" xmlns="http://www.w3.org/2000/svg">
<g clip-path="url(#clip0_1_655)">
<path d="M7.38597 6.42758L10.5416 3.27191V16.2916C10.5416 16.8209 10.9707 17.2499 11.5 17.2499C12.0292 17.2499 12.4583 16.8209 12.4583 16.2916V3.27191L15.6139 6.42758C15.9882 6.80183 16.595 6.80183 16.9692 6.42758C17.3435 6.05334 17.3435 5.44653 16.9692 5.07229L12.1777 0.280605C12.1775 0.280425 12.1773 0.280335 12.1772 0.280155C12.155 0.258009 12.1317 0.23703 12.1074 0.21713C12.0963 0.208011 12.0847 0.200105 12.0733 0.191569C12.0596 0.181372 12.0463 0.170815 12.0321 0.161337C12.0185 0.152218 12.0043 0.144312 11.9903 0.135956C11.9774 0.128274 11.9649 0.120233 11.9517 0.113136C11.9374 0.105499 11.9228 0.0990303 11.9082 0.0921573C11.8944 0.0856436 11.8808 0.0787705 11.8667 0.0728858C11.8526 0.0670459 11.8381 0.0622842 11.8237 0.0571631C11.8086 0.0517276 11.7937 0.0459326 11.7782 0.0412608C11.7638 0.0369033 11.7492 0.0337139 11.7347 0.0300752C11.7189 0.0260772 11.7033 0.0216748 11.6873 0.0184854C11.6704 0.0151611 11.6535 0.0131397 11.6365 0.0107139C11.6226 0.00873731 11.6088 0.00604199 11.5946 0.00464942C11.5317 -0.00154981 11.4683 -0.00154981 11.4054 0.00464942C11.3913 0.00604199 11.3776 0.00869239 11.3635 0.0107139C11.3466 0.0131397 11.3296 0.0151162 11.3128 0.0184854C11.2967 0.0216748 11.2811 0.0260772 11.2654 0.0300752C11.2508 0.0337139 11.2362 0.0369033 11.2219 0.0412608C11.2064 0.0459326 11.1914 0.0517276 11.1763 0.0571631C11.162 0.0623291 11.1475 0.0670459 11.1334 0.0728858C11.1192 0.0787256 11.1057 0.0856436 11.0919 0.0921573C11.0773 0.0990303 11.0626 0.105499 11.0484 0.113136C11.0352 0.120233 11.0226 0.128274 11.0098 0.135956C10.9958 0.144312 10.9816 0.152218 10.968 0.161337C10.9538 0.170815 10.9405 0.181372 10.9268 0.191569C10.9154 0.200105 10.9037 0.208011 10.8926 0.21713C10.8684 0.23703 10.845 0.258009 10.8229 0.280155C10.8227 0.280335 10.8225 0.280425 10.8224 0.280605L6.03068 5.07229C5.65644 5.44653 5.65644 6.05334 6.03068 6.42758C6.40493 6.80183 7.01173 6.80183 7.38597 6.42758Z" fill="white"/>
<path d="M22.0417 17.25C21.5124 17.25 21.0834 17.679 21.0834 18.2083V22.0416H1.91668V18.2083C1.91668 17.679 1.48763 17.25 0.958363 17.25C0.429049 17.25 0 17.679 0 18.2083V23C0 23.5293 0.429049 23.9583 0.958318 23.9583H22.0416C22.5709 23.9583 23 23.5293 23 23V18.2083C23 17.679 22.5709 17.25 22.0417 17.25Z" fill="white"/>
</g>
<defs>
<clipPath id="clip0_1_655">
<rect width="23" height="23" fill="white"/>
</clipPath>
</defs>
</svg>
