<svg width="151" height="69" viewBox="0 0 151 69" fill="none" xmlns="http://www.w3.org/2000/svg">
<path d="M15.144 11.269C14.5916 13.423 13.7356 16.0465 12.2443 18.808C11.4987 20.244 10.6979 21.4867 9.92466 22.5913C8.59912 24.3311 6.85935 26.8717 5.09197 30.1303C4.4292 31.373 3.46266 33.1956 2.68943 35.2668C2.08189 36.8961 0.148818 42.0601 0.922048 47.8041C2.02666 56.0611 8.10204 61.17 9.59327 62.4126C16.6904 68.3776 24.8093 68.5709 28.5374 68.6813C31.6579 68.7642 39.7769 68.847 47.4815 63.5449C49.6632 62.0537 53.2808 59.4854 55.6833 54.708C60.3227 45.4844 56.4289 35.9295 56.0147 34.9354C55.3519 33.3613 54.1645 31.373 51.8448 27.3964C49.1108 22.757 48.0062 21.3762 47.1778 18.4214C46.156 14.6933 46.5702 12.0146 46.2112 11.987C45.797 11.9594 44.6924 15.9084 44.9133 20.4925C45.1066 24.6625 46.2112 25.4357 47.9786 33.1956C49.2765 38.912 49.1937 40.7898 48.9452 42.3639C48.669 43.938 48.1995 46.7824 45.8798 49.102C45.3552 49.6267 41.4338 53.4653 36.7116 52.0017C32.9559 50.8142 30.4429 46.81 30.9399 43.3304C31.2713 41.0936 32.7626 39.5747 33.3425 38.9948C36.3802 35.9571 39.1693 37.2274 40.7434 35.2944C43.643 31.7044 38.258 22.1219 35.4412 17.1511C33.6739 14.0306 32.0169 11.7109 30.6086 7.34763C29.7525 4.64132 29.3659 2.34925 29.1726 0.747559C29.1449 1.46556 29.0621 2.51494 28.8412 3.81286C27.9299 9.14263 25.5549 11.9318 22.9039 16.8197C20.9432 20.4373 19.3415 23.3645 18.4026 27.424C17.8779 29.7437 16.6904 34.8801 18.4026 40.4308C20.667 47.7213 26.411 50.7866 25.4721 52.1674C24.6989 53.2996 20.1423 51.8912 16.9666 49.7648C16.1105 49.1849 11.554 46.1196 10.2284 40.4584C8.90289 34.7973 11.4435 29.4675 13.2937 25.6842C13.9841 24.2482 14.1222 24.2206 14.5916 23.116C16.359 18.6147 15.862 14.2791 15.144 11.269Z" fill="#F15A24"/>
<path d="M80.0119 43.0271C79.5425 43.0271 79.0178 43.0271 78.3826 42.9995C77.7475 42.9718 77.1123 42.9166 76.4496 42.8338C75.7868 42.7509 75.124 42.6404 74.4889 42.53C73.8537 42.4195 73.2462 42.2262 72.6939 42.0329C71.2026 41.453 70.457 40.4865 70.457 39.0505V20.0511C70.457 19.4712 70.6227 19.0293 70.9265 18.7255C71.2303 18.4218 71.6721 18.1733 72.1968 17.9799C73.1081 17.6486 74.268 17.4276 75.6487 17.2619C77.0295 17.1239 78.4655 17.041 79.9291 17.041C83.4086 17.041 86.0873 17.6209 87.9376 18.7808C89.8154 19.9406 90.7543 21.7632 90.7543 24.1934C90.7543 25.4085 90.3953 26.4578 89.7049 27.3415C88.9869 28.2252 88.048 28.8604 86.8606 29.2746C88.2137 29.6612 89.3459 30.3516 90.2572 31.3458C91.1686 32.3399 91.6104 33.6102 91.6104 35.1291C91.6104 37.8078 90.6162 39.7961 88.6279 41.094C86.612 42.3919 83.7676 43.0271 80.0119 43.0271ZM77.3609 27.3692H80.3433C81.5032 27.3692 82.3593 27.1482 82.8839 26.7064C83.4086 26.2645 83.6848 25.6294 83.6848 24.8009C83.6848 24.0553 83.381 23.4754 82.7735 23.0612C82.1659 22.6193 81.2546 22.3984 80.0396 22.3984C79.6253 22.3984 79.1559 22.3984 78.6312 22.426C78.1065 22.4536 77.6923 22.4812 77.3885 22.5365V27.3692H77.3609ZM77.3609 37.3107C77.7475 37.4212 78.217 37.504 78.8245 37.5316C79.432 37.5592 79.9843 37.5868 80.5366 37.5868C81.6136 37.5868 82.5249 37.3659 83.2429 36.9241C83.9609 36.4822 84.3199 35.7918 84.3199 34.8253C84.3199 33.9416 84.0162 33.3065 83.4362 32.9198C82.8287 32.5332 81.9174 32.3399 80.7023 32.3399H77.3609V37.3107Z" fill="white"/>
<path d="M105.445 43.0272C103.844 43.0272 102.352 42.8063 100.999 42.3645C99.6185 41.9226 98.431 41.2322 97.4093 40.3485C96.3875 39.4649 95.5867 38.3326 95.0067 36.9795C94.4268 35.6263 94.123 34.0246 94.123 32.2296C94.123 30.4346 94.4268 28.8882 95.0067 27.6179C95.5867 26.3199 96.3599 25.2706 97.2988 24.4421C98.2377 23.6136 99.3423 23.0061 100.557 22.6195C101.772 22.2329 103.015 22.0396 104.313 22.0396C105.749 22.0396 107.047 22.2605 108.234 22.7023C109.422 23.1442 110.444 23.7241 111.3 24.4973C112.156 25.2706 112.819 26.1543 113.288 27.2313C113.758 28.2806 114.006 29.4405 114.006 30.6832C114.006 31.5945 113.758 32.3125 113.233 32.8095C112.708 33.3066 111.99 33.6104 111.079 33.7485L101.027 35.2673C101.331 36.151 101.938 36.8414 102.85 37.2832C103.761 37.7251 104.838 37.946 106.025 37.946C107.13 37.946 108.179 37.8079 109.173 37.5318C110.168 37.2556 110.968 36.9242 111.604 36.5376C112.045 36.8138 112.404 37.2004 112.708 37.6699C113.012 38.1669 113.15 38.664 113.15 39.2163C113.15 40.4314 112.57 41.3427 111.438 41.9502C110.582 42.4197 109.588 42.7235 108.511 42.8891C107.406 42.9444 106.384 43.0272 105.445 43.0272ZM104.313 27.0379C103.65 27.0379 103.098 27.1484 102.629 27.3693C102.159 27.5903 101.773 27.8664 101.469 28.1978C101.165 28.5292 100.944 28.9158 100.806 29.33C100.668 29.7442 100.557 30.1861 100.53 30.6003L107.489 29.4681C107.406 28.9158 107.102 28.3911 106.605 27.8388C106.08 27.3141 105.307 27.0379 104.313 27.0379Z" fill="white"/>
<path d="M134.028 36.482C134.028 38.5532 133.255 40.1549 131.708 41.3147C130.162 42.4745 127.87 43.0545 124.86 43.0545C123.727 43.0545 122.65 42.9716 121.684 42.8059C120.717 42.6402 119.861 42.3917 119.171 42.0603C118.48 41.7289 117.928 41.2871 117.542 40.79C117.155 40.2653 116.962 39.6578 116.962 38.9674C116.962 38.3046 117.1 37.7799 117.376 37.3105C117.652 36.8686 117.983 36.482 118.342 36.1782C119.116 36.6201 120.027 37.0067 121.049 37.3381C122.07 37.6695 123.23 37.8351 124.556 37.8351C125.384 37.8351 126.047 37.7247 126.489 37.4762C126.931 37.2276 127.152 36.8962 127.152 36.5096C127.152 36.123 126.986 35.8192 126.655 35.6259C126.323 35.405 125.799 35.2393 125.025 35.1012L123.81 34.8527C121.463 34.3832 119.696 33.6652 118.536 32.6711C117.376 31.6769 116.796 30.2685 116.796 28.4183C116.796 27.4242 117.017 26.5129 117.459 25.6844C117.901 24.8835 118.508 24.1932 119.281 23.6409C120.055 23.0886 121.021 22.6743 122.098 22.3705C123.203 22.0668 124.418 21.9287 125.743 21.9287C126.737 21.9287 127.676 22.0116 128.56 22.1496C129.444 22.2877 130.217 22.5363 130.852 22.8124C131.515 23.1162 132.012 23.5028 132.399 23.9722C132.785 24.4417 132.979 25.0216 132.979 25.6568C132.979 26.2919 132.868 26.8166 132.62 27.2585C132.399 27.7003 132.095 28.0869 131.736 28.3907C131.515 28.2526 131.184 28.1145 130.769 27.9765C130.327 27.8384 129.858 27.7003 129.333 27.5622C128.809 27.4518 128.284 27.3413 127.759 27.2585C127.235 27.1756 126.737 27.148 126.323 27.148C125.44 27.148 124.749 27.2585 124.252 27.4518C123.755 27.6451 123.506 27.9765 123.506 28.4183C123.506 28.7221 123.645 28.9706 123.921 29.1639C124.197 29.3572 124.694 29.5229 125.467 29.6886L126.737 29.9648C129.333 30.5723 131.184 31.3732 132.288 32.4225C133.476 33.4719 134.028 34.8251 134.028 36.482Z" fill="white"/>
<path d="M144.273 35.5984C144.273 36.3164 144.494 36.8134 144.936 37.1172C145.378 37.421 146.013 37.559 146.841 37.559C147.256 37.559 147.67 37.5314 148.112 37.4486C148.554 37.3934 148.913 37.2829 149.244 37.1724C149.492 37.4762 149.686 37.8076 149.879 38.1666C150.045 38.5256 150.155 38.9674 150.155 39.4921C150.155 40.5139 149.769 41.37 148.995 42.0051C148.222 42.6679 146.869 42.9717 144.908 42.9717C142.533 42.9717 140.683 42.4193 139.385 41.3423C138.087 40.2654 137.452 38.498 137.452 36.0402V18.6149C137.756 18.5321 138.17 18.4492 138.722 18.3388C139.275 18.2559 139.855 18.2007 140.49 18.2007C141.677 18.2007 142.616 18.4216 143.279 18.8358C143.942 19.2501 144.273 20.1338 144.273 21.5145V24.1104H149.603C149.769 24.4141 149.934 24.7731 150.072 25.2426C150.21 25.6844 150.293 26.1815 150.293 26.7338C150.293 27.6727 150.072 28.3631 149.658 28.7774C149.244 29.1916 148.664 29.4125 147.974 29.4125H144.273V35.5984Z" fill="white"/>
<path d="M79.3219 60.3965H75.4005C74.1578 60.3965 73.1913 59.9823 72.5009 59.1538C72.1419 58.712 71.8933 58.2425 71.7829 57.6902C71.6724 57.1379 71.6172 56.4475 71.6172 55.619C71.6172 54.763 71.7 53.9897 71.8381 53.3546C71.9762 52.7194 72.28 52.1395 72.7218 51.67C73.4398 50.952 74.4616 50.5654 75.7871 50.5654H79.101V51.4215H75.6766C74.9034 51.4215 74.2959 51.6148 73.7988 51.9738C73.3017 52.3328 72.998 52.8299 72.8323 53.4374C72.7218 53.9345 72.639 54.7077 72.639 55.7295C72.639 56.7513 72.7494 57.5245 72.9703 58.0492C73.4122 59.0157 74.3511 59.5128 75.87 59.5128H79.3219V60.3965Z" fill="white"/>
<path d="M89.1255 50.5933H93.9306C94.6486 50.5933 95.2285 50.8142 95.6427 51.2836C96.0293 51.6979 96.2226 52.3606 96.2226 53.2443V59.0988C96.2226 59.5682 96.1122 59.8996 95.8913 60.1206C95.6979 60.3139 95.3113 60.3967 94.7866 60.3967H91.0033C90.2025 60.3967 89.595 60.2586 89.236 59.9549C88.656 59.4854 88.3799 58.6293 88.3799 57.359C88.3799 56.282 88.656 55.5088 89.1807 55.0393C89.595 54.7079 90.2025 54.5146 91.0033 54.5146H95.2561V53.051C95.2561 52.5816 95.1456 52.195 94.8971 51.8912C94.6486 51.5874 94.3172 51.4493 93.8477 51.4493H89.0979V50.5933H89.1255ZM95.2837 55.3983H90.81C90.3406 55.3983 89.9816 55.564 89.733 55.8678C89.5121 56.1439 89.4293 56.641 89.4293 57.3866C89.4293 58.1875 89.5673 58.7674 89.8159 59.0988C90.0368 59.3749 90.3682 59.513 90.7824 59.513H94.7314C94.9247 59.513 95.0628 59.4854 95.1456 59.4026C95.2285 59.3197 95.2837 59.2093 95.2837 59.0712V55.3983Z" fill="white"/>
<path d="M105.832 60.3965V59.5404H111.466C112.018 59.5404 112.377 59.3747 112.626 59.071C112.791 58.85 112.874 58.4634 112.874 57.9387C112.874 57.4969 112.764 57.1655 112.515 56.917C112.294 56.696 111.521 56.4475 110.196 56.1437L108.483 55.7571C107.379 55.5086 106.633 55.122 106.219 54.6525C105.86 54.2383 105.694 53.7136 105.694 53.0232C105.694 52.388 105.86 51.8633 106.191 51.4215C106.468 51.0625 106.771 50.8416 107.158 50.7311C107.517 50.6207 107.986 50.5654 108.566 50.5654H113.261V51.4215H108.18C107.683 51.4215 107.324 51.532 107.075 51.7529C106.854 51.9738 106.716 52.388 106.716 52.9127C106.716 53.4927 106.854 53.9069 107.13 54.183C107.379 54.4316 107.931 54.6525 108.815 54.8458L110.582 55.26C111.107 55.3705 111.494 55.481 111.714 55.5362C111.935 55.5914 112.184 55.6743 112.488 55.7847C112.791 55.8952 113.012 56.0333 113.206 56.1713C113.675 56.5303 113.896 57.1103 113.896 57.8835C113.896 58.8777 113.62 59.568 113.04 59.9823C112.681 60.2308 112.184 60.3413 111.494 60.3413H105.832V60.3965Z" fill="white"/>
<path d="M131.156 60.3964H126.351C125.219 60.3964 124.362 59.9822 123.755 59.1814C123.396 58.7395 123.203 58.2425 123.092 57.6901C122.982 57.1378 122.954 56.4198 122.954 55.5362C122.954 54.9562 122.982 54.4591 123.009 54.0725C123.037 53.6859 123.175 53.2165 123.368 52.7194C123.589 52.1947 123.865 51.7805 124.252 51.4767C124.942 50.8968 125.964 50.6206 127.317 50.6206C128.339 50.6206 129.168 50.8139 129.803 51.1729C130.852 51.8357 131.377 52.8575 131.377 54.2935C131.377 54.901 131.239 55.3428 130.963 55.5638C130.742 55.7571 130.383 55.8675 129.913 55.8675H123.948C123.921 56.7236 123.976 57.3864 124.114 57.8558C124.252 58.3253 124.501 58.7119 124.86 59.0709C125.219 59.4299 125.688 59.568 126.296 59.568H131.101V60.3964H131.156ZM124.003 54.9562H129.968C130.245 54.9562 130.383 54.7353 130.383 54.3211C130.383 53.5202 130.162 52.8298 129.72 52.3328C129.499 52.0842 129.223 51.8633 128.919 51.7528C128.615 51.6148 128.339 51.5319 128.118 51.5319C127.897 51.5043 127.593 51.5043 127.207 51.5043C126.793 51.5043 126.461 51.5319 126.185 51.5595C125.937 51.5871 125.633 51.6976 125.301 51.8909C124.97 52.0842 124.694 52.3604 124.501 52.6918C124.169 53.1336 124.003 53.9068 124.003 54.9562Z" fill="white"/>
<path d="M140.656 60.3965V59.5404H146.289C146.842 59.5404 147.2 59.3747 147.449 59.071C147.615 58.85 147.698 58.4634 147.698 57.9387C147.698 57.4969 147.587 57.1655 147.339 56.917C147.118 56.696 146.344 56.4475 145.019 56.1437L143.307 55.7571C142.202 55.5086 141.457 55.122 141.042 54.6525C140.683 54.2383 140.518 53.7136 140.518 53.0232C140.518 52.388 140.683 51.8633 141.015 51.4215C141.291 51.0625 141.595 50.8416 141.981 50.7311C142.34 50.6207 142.81 50.5654 143.39 50.5654H148.084V51.4215H143.003C142.506 51.4215 142.147 51.532 141.898 51.7529C141.677 51.9738 141.539 52.388 141.539 52.9127C141.539 53.4927 141.677 53.9069 141.954 54.183C142.202 54.4316 142.754 54.6525 143.638 54.8458L145.405 55.26C145.93 55.3705 146.317 55.481 146.538 55.5362C146.759 55.5914 147.007 55.6743 147.311 55.7847C147.615 55.8952 147.836 56.0333 148.029 56.1713C148.498 56.5303 148.719 57.1103 148.719 57.8835C148.719 58.8777 148.443 59.568 147.863 59.9823C147.504 60.2308 147.007 60.3413 146.317 60.3413H140.656V60.3965Z" fill="white"/>
</svg>
