<svg width="225" height="83" viewBox="0 0 225 83" fill="none" xmlns="http://www.w3.org/2000/svg">
<path opacity="0.5" fill-rule="evenodd" clip-rule="evenodd" d="M33.0024 0.84373C-15.0512 6.06117 -7.06518 74.8346 41.3485 72.7181C62.4363 71.7961 66.9826 72.7597 76.1951 80.1021C81.9099 84.6574 82.1118 81.8796 76.4678 76.3377C71.3123 71.2756 66.7322 68.832 58.5287 66.7655C49.4588 64.4812 44.5337 61.3241 40.6136 55.2812C38.1633 51.5044 37.6878 51.7346 37.8629 56.6125C38.0283 61.2196 38.3193 61.0169 33.1036 59.9294C9.50353 55.0085 7.21233 22.7417 29.8876 14.6442C44.7392 9.34088 60.958 20.9982 60.958 36.9759V39.35H56.7242C51.8138 39.35 51.381 39.7838 55.2312 40.8469C61.8164 42.6651 66.528 47.6723 67.4599 53.8422C67.878 56.6121 68.7872 56.2226 70.5547 52.5175C82.8846 26.6716 61.8396 -2.28726 33.0024 0.84373ZM103.987 16.8006C85.8573 23.1741 84.4298 47.4962 101.689 55.9672C107.251 58.6972 114.812 58.6892 120.314 55.9473L122.402 54.9072L123.11 55.9809C123.799 57.0259 123.971 57.0542 129.615 57.0542C136.953 57.0542 136.999 56.9737 132.549 51.9328C129.407 48.3725 129.222 48.0534 129.799 47.1638C139.861 31.6274 121.903 10.5023 103.987 16.8006ZM139.606 17.3158C139.485 17.6282 139.439 26.6472 139.503 37.3583L139.619 56.8329L144.621 56.9578C150.796 57.1122 150.147 59.643 149.993 36.0305L149.869 16.9984L144.847 16.8731C141.078 16.7793 139.771 16.8895 139.606 17.3158ZM152.525 17.3304C152.408 17.6349 155.271 26.6472 158.89 37.3583L165.468 56.8329H170.101H174.734L178.391 46.256C180.401 40.4388 182.15 35.8578 182.276 36.076C182.403 36.2943 183.964 40.8549 185.746 46.2104C189.717 58.1479 188.887 57.1118 194.355 56.9582L198.82 56.8329L205.207 37.8049C213.08 14.3521 212.996 16.72 205.95 16.8745L200.306 16.9984L197.308 26.8451C195.659 32.2608 194.17 37.0409 193.999 37.4676C193.793 37.9846 192.465 34.6982 190.024 27.6209L186.359 16.9984L182.288 16.8714C177.423 16.7196 178.379 15.4316 174.143 27.8423C172.357 33.0761 170.763 37.5114 170.602 37.6986C170.441 37.8863 169.042 33.9029 167.493 28.8465C165.945 23.7906 164.415 19.0065 164.093 18.2156L163.508 16.7771H158.123C154.226 16.7771 152.679 16.9298 152.525 17.3304ZM214.478 17.3158C214.358 17.6282 214.312 26.6472 214.375 37.3583L214.492 56.8329H219.617H224.742V36.9157V16.9984L219.72 16.8731C215.951 16.7793 214.643 16.8895 214.478 17.3158ZM115.124 26.4604C118.861 28.1463 121.576 32.4834 121.563 36.7457C121.551 40.6898 121.625 40.6331 116.321 40.7739C110.736 40.9226 110.666 41.0146 113.517 44.4457L115.719 47.0956L114.076 47.6825C108.183 49.788 101.23 44.9954 100.381 38.243C99.317 29.7893 107.683 23.1037 115.124 26.4604ZM62.1467 52.0382C60.708 53.4665 64.1638 58.7596 65.8564 57.7208C66.5334 57.3052 66.3966 54.5283 65.626 53.0487C64.9691 51.7868 62.981 51.2092 62.1467 52.0382ZM53.9164 58.028C52.9008 59.0367 53.2863 61.4537 54.6843 62.8422C56.9363 65.0787 60.5124 64.2621 60.5124 61.5117C60.5124 58.9539 55.598 56.358 53.9164 58.028Z" fill="#EAC48B" fill-opacity="0.5"/>
</svg>
