<svg width="40" height="40" viewBox="0 0 40 40" fill="none" xmlns="http://www.w3.org/2000/svg">
<path d="M20.6473 32.3995H18.7154C17.3548 32.3995 16.249 33.5053 16.249 34.8659V37.5336C16.249 38.8942 17.3548 40 18.7154 40H20.6473C22.008 40 23.1137 38.8942 23.1137 37.5336V34.8659C23.1137 33.5012 22.008 32.3995 20.6473 32.3995Z" fill="#2C6DF5"/>
<path d="M7.02479 11.748L10.5887 12.192C11.7191 12.3317 12.7919 11.6823 13.1989 10.6176C13.7127 9.27346 14.4279 8.21293 15.3446 7.44014C16.6436 6.34673 18.259 5.79591 20.1909 5.79591C22.1928 5.79591 23.7877 6.32206 24.9715 7.37026C26.1554 8.42257 26.7432 9.6804 26.7432 11.1561C26.7432 12.2166 26.4102 13.1867 25.7443 14.0664C25.3127 14.6254 23.985 15.801 21.7694 17.5974C19.5497 19.3937 18.074 21.0132 17.3341 22.4519C16.5778 23.9235 16.3147 25.5554 16.249 27.1914C16.1914 28.5932 17.3095 29.7606 18.7153 29.7606H20.7295C22.012 29.7606 23.0725 28.7781 23.1876 27.5039C23.2698 26.5872 23.4219 25.8925 23.6521 25.4198C24.0385 24.61 25.0374 23.5413 26.6405 22.2095C29.7439 19.6403 31.7663 17.6097 32.7159 16.1135C33.6613 14.6213 34.1382 13.0387 34.1382 11.3657C34.1382 8.34447 32.8516 5.69315 30.2742 3.41589C27.701 1.13863 24.2317 0 19.8745 0C15.731 0 12.3891 1.12219 9.84057 3.37067C7.67019 5.2862 6.35069 7.55524 5.8862 10.1737C5.74229 10.9382 6.26433 11.6535 7.02479 11.748Z" fill="#2C6DF5"/>
</svg>
