<svg width="28" height="154" viewBox="0 0 28 154" fill="none" xmlns="http://www.w3.org/2000/svg">
<path fill-rule="evenodd" clip-rule="evenodd" d="M10.8468 112.114C5.6325 112.838 1.68483 116.927 0.865043 122.455C0.71845 123.444 0.694865 142.123 0.838874 143.248C1.8206 150.921 8.53714 155.153 17.4687 153.725C22.6681 152.894 26.7492 148.731 27.6052 143.385C27.7903 142.229 27.7867 123.653 27.6011 122.485C26.7134 116.897 22.3594 112.667 16.8873 112.076C15.7915 111.958 11.7943 111.983 10.8468 112.114ZM13.4313 115.289V116.95L13.112 117.093C11.9804 117.598 11.816 118.176 11.816 121.644C11.816 125.148 11.9177 125.539 12.9871 126.151L13.4313 126.405V128.528C13.4313 131.086 13.4926 131.297 14.2365 131.297C14.9658 131.297 15.0467 131.015 15.0467 128.467V126.397L15.3123 126.269C15.7814 126.044 16.1614 125.661 16.3944 125.181L16.6216 124.712L16.6457 121.817C16.6759 118.189 16.5183 117.607 15.366 117.093L15.0467 116.95V115.289V113.627L15.7938 113.629C21.155 113.639 25.6524 117.976 26.1106 123.577C26.2133 124.834 26.2141 140.908 26.1115 142.245C25.5659 149.352 19.3457 153.425 10.9834 152.151C6.60187 151.484 3.29598 148.096 2.46715 143.424C2.24487 142.171 2.25158 123.749 2.47474 122.462C3.38402 117.218 7.37361 113.67 12.4015 113.635L13.4313 113.627V115.289ZM14.6705 118.545C15.0267 118.709 15.0467 118.878 15.0467 121.734V124.433L14.8484 124.634C14.6898 124.795 14.5679 124.835 14.239 124.835C13.9101 124.835 13.7882 124.795 13.6296 124.634L13.4313 124.433L13.4339 121.668C13.4358 119.624 13.4621 118.87 13.5349 118.775C13.7722 118.465 14.2759 118.363 14.6705 118.545Z" fill="white"/>
<path d="M13.7422 96V0" stroke="white"/>
</svg>
