<svg width="28" height="28" viewBox="0 0 28 28" fill="none" xmlns="http://www.w3.org/2000/svg">
<path opacity="0.5" fill-rule="evenodd" clip-rule="evenodd" d="M13.3566 0.0192599C6.21899 0.402227 0.61765 5.78733 0.0163691 12.8446C0.0054254 12.973 -0.00176866 13.0796 0.000379404 13.0814C0.00254018 13.0832 1.69555 13.7814 3.76264 14.6331L7.52098 16.1814L7.64569 16.1048C8.20777 15.7596 8.86452 15.5681 9.56505 15.5452L9.82176 15.5368L11.5301 13.0532L13.2384 10.5695L13.2463 10.2991C13.3683 6.13763 18.1807 3.729 21.5725 6.13172C25.8265 9.14514 23.7712 15.68 18.5234 15.8262L18.409 15.8294L15.9673 17.5756L13.5255 19.3217L13.5181 19.5728C13.4709 21.1615 12.4273 22.573 10.9151 23.0933C8.77235 23.8304 6.46384 22.5852 5.90367 20.3899L5.87283 20.2691L3.24996 19.1852C0.393285 18.0047 0.548658 18.068 0.567203 18.0908C0.574257 18.0994 0.601355 18.1752 0.627412 18.2592C2.1997 23.3257 6.73889 27.1469 12.0427 27.8688C21.1064 29.1025 28.9047 21.4601 27.8455 12.382C26.9981 5.11963 20.5672 -0.367626 13.3566 0.0192599ZM18.3074 6.9566C16.7243 7.06618 15.3784 8.24711 15.0744 9.79329C14.4309 13.0662 18.2787 15.3678 20.8113 13.2248C23.4195 11.0177 21.7033 6.72153 18.3074 6.9566ZM19.0001 7.87086C21.3628 8.30333 22.0087 11.3729 20.018 12.7085C18.3631 13.8189 16.1164 12.7482 15.9106 10.751C15.7329 9.02623 17.3051 7.56061 19.0001 7.87086ZM9.44817 16.4333C9.1702 16.4551 8.60292 16.5828 8.60292 16.6236C8.60292 16.6277 9.01046 16.7995 9.50854 17.0054C10.6854 17.492 10.7639 17.533 11.0544 17.8139C12.596 19.3047 11.322 21.8916 9.20031 21.5788C8.9354 21.5397 8.92038 21.5342 7.80852 21.0721C6.84677 20.6723 6.94264 20.699 7.02564 20.8545C8.16252 22.984 11.2401 22.9306 12.3289 20.7625C13.3612 18.7068 11.7291 16.2541 9.44817 16.4333Z" fill="white"/>
</svg>
