<svg width="184" height="60" viewBox="0 0 184 60" fill="none" xmlns="http://www.w3.org/2000/svg">
<path opacity="0.5" fill-rule="evenodd" clip-rule="evenodd" d="M118.077 0.627981C104.555 1.65942 95.8651 8.69057 95.4739 18.9161C95.2198 25.5557 98.8469 29.9891 108.605 34.9654C114.506 37.9748 116.111 39.4647 116.111 41.9304C116.111 45.3419 112.494 47.4969 106.782 47.4885C101.544 47.4807 97.9502 46.6311 92.5725 44.1297C91.4327 43.5995 91.3733 43.58 91.341 43.7265C91.2479 44.1488 89.2953 56.3643 89.3174 56.3862C89.7963 56.862 94.483 58.1665 97.5592 58.6801C116.641 61.8663 130.762 54.4933 131.623 40.8952C132.073 33.7921 128.553 29.1771 118.971 24.3073C112.531 21.0344 110.89 19.644 110.893 17.4652C110.902 12.1179 121.634 10.7813 130.974 14.9642C131.382 15.1472 131.739 15.271 131.766 15.2393C131.869 15.1191 133.793 3.06473 133.72 2.99277C133.37 2.64505 129.152 1.48397 126.789 1.08481C124.516 0.701006 120.133 0.471133 118.077 0.627981ZM0.835011 2.14922C0.683306 2.84679 0.503648 2.71083 2.19478 3.17846C6.80248 4.45256 11.3646 6.29715 15.3349 8.49132C16.4423 9.10329 15.1789 4.87764 22.9197 33.8607L29.5039 58.5138H37.3581H45.2123L56.8542 30.0993C63.2573 14.4714 68.4966 1.66084 68.4971 1.63136C68.4975 1.60188 64.9674 1.5859 60.6525 1.59585L52.8071 1.61389L45.6199 20.8291C41.6669 31.3975 38.4048 40.1083 38.3708 40.1865C38.295 40.3609 37.9032 38.4437 34.2482 20.0122C32.7529 12.4718 31.4791 6.12645 31.4176 5.91157C30.8678 3.99118 29.4683 2.57323 27.569 2.01226C26.1827 1.60274 26.953 1.62526 13.4067 1.59848L0.960121 1.57383L0.835011 2.14922ZM74.4672 1.66717C74.4451 1.72932 67.2357 45.9365 65.2342 58.2829L65.191 58.5493H72.6353C77.5456 58.5493 80.0795 58.5251 80.0795 58.4783C80.0795 58.4393 82.1546 45.6647 84.6907 30.0903C87.2269 14.5159 89.3019 1.72932 89.3019 1.67576C89.3019 1.53767 74.5162 1.52907 74.4672 1.66717ZM158.97 1.65672C156.143 1.9165 154.204 3.13541 153.018 5.39805C152.77 5.87037 131.233 56.785 130.572 58.4605C130.544 58.5312 132.125 58.5493 138.332 58.5493H146.127L146.266 58.1763C146.342 57.9713 147.041 56.0533 147.82 53.9142L149.235 50.025H158.727C167.705 50.025 168.221 50.0317 168.256 50.1493C168.277 50.2176 168.668 52.0957 169.125 54.3226C169.582 56.5496 169.968 58.4117 169.983 58.4605C170.016 58.5651 183.742 58.5935 183.742 58.489C183.742 58.4285 171.904 2.03918 171.828 1.7382L171.788 1.57837L165.701 1.58796C162.353 1.59322 159.324 1.62419 158.97 1.65672ZM161.86 19.4439C162.097 20.577 162.965 24.7645 163.79 28.7497C164.614 32.7348 165.4 36.5228 165.536 37.1674C165.673 37.8121 165.776 38.3477 165.767 38.3577C165.757 38.3677 162.999 38.3677 159.637 38.3577L153.525 38.3395L156.442 30.49C158.046 26.1728 159.802 21.403 160.344 19.8906C160.989 18.0916 161.347 17.1826 161.379 17.2623C161.407 17.3291 161.623 18.3109 161.86 19.4439Z" fill="#EAC48B" fill-opacity="0.5"/>
</svg>
