<svg width="33" height="32" viewBox="0 0 33 32" fill="none" xmlns="http://www.w3.org/2000/svg">
<g clip-path="url(#clip0_50_327)">
<path d="M8.22007 6.48841L20.9769 3.00633L20.3014 1.64081C19.8594 0.753215 18.7813 0.38668 17.8937 0.828678L6.47363 6.48841H8.22007Z" fill="#F15A24"/>
<path d="M24.9374 3.10693C24.7793 3.10693 24.6212 3.12849 24.4631 3.17162L21.4661 3.99093L12.3135 6.4884H22.7022H27.23L26.6695 4.43293C26.4538 3.63158 25.728 3.10693 24.9374 3.10693Z" fill="#F15A24"/>
<path d="M29.102 7.74609H28.6923H28.1353H27.5783H23.3273H7.70637H5.65808H3.9332H3.61338H2.54252C1.97475 7.74609 1.46807 8.00842 1.13747 8.42167C0.986545 8.61212 0.871553 8.83133 0.80687 9.07209C0.767342 9.22302 0.742188 9.38113 0.742188 9.54284V9.75845V11.8067V29.5621C0.742188 30.554 1.54713 31.3589 2.53893 31.3589H29.0984C30.0902 31.3589 30.8951 30.554 30.8951 29.5621V24.5492H20.2333C18.5479 24.5492 17.1788 23.1801 17.1788 21.4948V19.849V19.292V18.735V17.4988C17.1788 16.6723 17.5094 15.9213 18.0448 15.3715C18.5192 14.8828 19.1552 14.5522 19.8667 14.4695C19.9853 14.4552 20.1075 14.4479 20.2297 14.4479H29.4002H29.9572H30.5142H30.8951V9.54284C30.8987 8.55103 30.0938 7.74609 29.102 7.74609Z" fill="#F15A24"/>
<path d="M32.1565 16.166C31.9768 16.0007 31.7648 15.875 31.5276 15.7923C31.3443 15.7312 31.1503 15.6953 30.9455 15.6953H30.8987H30.8628H30.3058H28.2971H20.2333C19.2414 15.6953 18.4365 16.5002 18.4365 17.4921V18.3868V18.9438V19.5008V21.4916C18.4365 22.4834 19.2414 23.2883 20.2333 23.2883H30.8987H30.9455C31.1503 23.2883 31.3443 23.2524 31.5276 23.1913C31.7648 23.1122 31.9768 22.9829 32.1565 22.8176C32.5158 22.4906 32.7422 22.0162 32.7422 21.4916V17.4921C32.7422 16.9674 32.5158 16.493 32.1565 16.166ZM23.9849 19.8493C23.9849 20.3452 23.5824 20.7477 23.0865 20.7477H22.49C21.9941 20.7477 21.5916 20.3452 21.5916 19.8493V19.2528C21.5916 18.9654 21.7246 18.7102 21.9366 18.5485C22.0911 18.4299 22.2816 18.3545 22.49 18.3545H22.6409H23.0865C23.5824 18.3545 23.9849 18.7569 23.9849 19.2528V19.8493Z" fill="#F15A24"/>
</g>
<defs>
<clipPath id="clip0_50_327">
<rect width="32" height="32" fill="white" transform="translate(0.742188)"/>
</clipPath>
</defs>
</svg>
