<svg width="41" height="40" viewBox="0 0 41 40" fill="none" xmlns="http://www.w3.org/2000/svg">
<g clip-path="url(#clip0_50_975)">
<path d="M10.0893 8.1104L26.0354 3.75779L25.1909 2.05088C24.6384 0.941397 23.2909 0.483228 22.1814 1.03573L7.90625 8.1104H10.0893Z" fill="#F15A24"/>
<path d="M30.986 3.88379C30.7884 3.88379 30.5907 3.91074 30.393 3.96464L26.6469 4.98879L15.2061 8.11063H28.192H33.8518L33.151 5.54129C32.8815 4.5396 31.9742 3.88379 30.986 3.88379Z" fill="#F15A24"/>
<path d="M36.1919 9.68262H35.6799H34.9836H34.2874H28.9735H9.44741H6.88705H4.73096H4.33118H2.99261C2.2829 9.68262 1.64954 10.0105 1.23629 10.5271C1.04763 10.7652 0.903894 11.0392 0.823041 11.3401C0.773631 11.5288 0.742188 11.7264 0.742188 11.9285V12.1981V14.7584V36.9527C0.742188 38.1925 1.74836 39.1986 2.98812 39.1986H36.1874C37.4272 39.1986 38.4334 38.1925 38.4334 36.9527V30.6865H25.106C22.9993 30.6865 21.288 28.9751 21.288 26.8685V24.8112V24.115V23.4187V21.8735C21.288 20.8404 21.7012 19.9016 22.3705 19.2144C22.9634 18.6034 23.7585 18.1902 24.6479 18.0869C24.7961 18.069 24.9488 18.0599 25.1015 18.0599H36.5648H37.261H37.9572H38.4334V11.9285C38.4379 10.6888 37.4317 9.68262 36.1919 9.68262Z" fill="#F15A24"/>
<path d="M40.0093 20.207C39.7847 20.0004 39.5197 19.8432 39.2232 19.7399C38.9941 19.6636 38.7516 19.6187 38.4955 19.6187H38.4371H38.3922H37.696H35.185H25.1053C23.8655 19.6187 22.8594 20.6248 22.8594 21.8646V22.983V23.6792V24.3755V26.864C22.8594 28.1037 23.8655 29.1099 25.1053 29.1099H38.4371H38.4955C38.7516 29.1099 38.9941 29.065 39.2232 28.9886C39.5197 28.8898 39.7847 28.7281 40.0093 28.5215C40.4585 28.1127 40.7415 27.5198 40.7415 26.864V21.8646C40.7415 21.2087 40.4585 20.6158 40.0093 20.207ZM29.7948 24.8112C29.7948 25.4311 29.2917 25.9342 28.6718 25.9342H27.9262C27.3063 25.9342 26.8032 25.4311 26.8032 24.8112V24.0655C26.8032 23.7062 26.9694 23.3872 27.2344 23.1851C27.4276 23.0369 27.6657 22.9426 27.9262 22.9426H28.1149H28.6718C29.2917 22.9426 29.7948 23.4456 29.7948 24.0655V24.8112Z" fill="#F15A24"/>
</g>
<defs>
<clipPath id="clip0_50_975">
<rect width="40" height="40" fill="white" transform="translate(0.742188)"/>
</clipPath>
</defs>
</svg>
