<svg width="24" height="24" viewBox="0 0 24 24" fill="none" xmlns="http://www.w3.org/2000/svg">
<path d="M22.4539 20.9898L12.5834 2.65557C12.5513 2.59592 12.5037 2.54608 12.4455 2.51134C12.3874 2.4766 12.3209 2.45825 12.2532 2.45825C12.1855 2.45825 12.119 2.4766 12.0608 2.51134C12.0027 2.54608 11.955 2.59592 11.9229 2.65557L2.05061 20.9898C2.01987 21.0469 2.00448 21.1111 2.00596 21.1759C2.00743 21.2408 2.02571 21.3042 2.05901 21.3599C2.09231 21.4156 2.1395 21.4617 2.19595 21.4937C2.2524 21.5257 2.31619 21.5425 2.38108 21.5424H22.1258C22.1904 21.5421 22.2539 21.525 22.3101 21.4928C22.3662 21.4607 22.4131 21.4145 22.4461 21.3589C22.4791 21.3033 22.4972 21.24 22.4986 21.1754C22.4999 21.1107 22.4845 21.0468 22.4539 20.9898ZM13.1904 19.2887H11.3155V17.4137H13.1904V19.2887ZM13.0029 16.2924H11.503L11.2217 8.79244H13.2842L13.0029 16.2924Z" fill="#2C6DF5"/>
</svg>
