<svg width="268" height="71" viewBox="0 0 268 71" fill="none" xmlns="http://www.w3.org/2000/svg">
<path opacity="0.5" fill-rule="evenodd" clip-rule="evenodd" d="M31.4823 0.688022C31.4362 0.734359 30.8085 0.864671 30.0875 0.977394C9.92617 4.13116 -3.3971 24.697 1.9143 44.465C8.19306 67.8332 35.1461 77.8216 55.4795 64.3155C57.9332 62.6858 58.0022 63.0822 54.6111 59.3292C54.2349 58.9132 53.1912 57.7216 52.2914 56.6814C51.3916 55.6412 50.5878 54.7653 50.5053 54.7349C50.4227 54.7044 48.5897 56.3026 46.432 58.2862C44.2743 60.27 42.4163 61.8693 42.3031 61.8403C42.1899 61.8116 41.6389 61.2716 41.0785 60.6407C40.2353 59.6911 35.063 53.9322 32.4267 51.0075C28.3891 46.5284 28.5915 47.2154 30.7511 45.3231C32.8252 43.5057 32.8825 43.9343 30.1578 40.8889C24.7095 34.7992 23.2289 33.1065 23.2289 32.9666C23.2289 32.8847 23.9695 32.1516 24.8744 31.3376C25.7795 30.5235 26.5475 29.7419 26.5816 29.6004C26.6395 29.3589 24.6202 27.0354 19.3941 21.3297L17.1567 18.8868L17.989 18.1144C18.8046 17.3573 21.883 14.5807 26.7081 10.2496C28.0409 9.05332 29.7663 7.49714 30.5426 6.7913C32.2597 5.23002 31.9044 5.12146 34.5861 8.02728C37.2224 10.8843 36.7869 10.7964 38.9051 8.8988C39.8505 8.05205 41.6353 6.46599 42.8714 5.37471L45.1188 3.39015L47.4385 5.77964C50.1719 8.59505 49.7893 8.50067 51.6421 6.81835C53.4635 5.1642 53.4733 5.31967 51.4841 4.31954C48.2556 2.69641 44.8947 1.61344 40.6127 0.816064C39.5406 0.61653 31.6632 0.506077 31.4823 0.688022ZM54.3519 10.2492C53.3176 11.1848 52.4714 12.0772 52.4714 12.2319C52.4714 12.6141 55.7633 16.3018 56.1046 16.3018C56.5529 16.3018 60.2946 12.7072 60.1338 12.4308C60.0567 12.2982 59.3166 11.4464 58.4891 10.5378C57.6617 9.62922 56.9565 8.80971 56.9221 8.71666C56.76 8.27901 56.0847 8.68148 54.3519 10.2492ZM41.6583 12.1916C40.0551 13.6611 38.7169 14.9694 38.6847 15.0989C38.5905 15.4764 44.0958 21.4316 44.3854 21.2655C45.3887 20.6904 50.4618 15.8271 50.3215 15.575C47.3627 10.2575 44.842 9.27309 41.6583 12.1916ZM30.7511 12.3656C30.3891 12.6913 29.4201 13.5611 28.5975 14.2987C22.6762 19.6091 23.1069 19.0039 24.3102 20.3242C24.8014 20.8633 25.2881 21.3996 25.3916 21.5161C28.7308 25.2801 30.7605 27.4611 30.922 27.4592C30.9832 27.4585 31.758 26.799 32.6439 25.9935C33.5298 25.1879 35.3699 23.5206 36.7329 22.288C38.5052 20.6855 39.1695 19.9717 39.0644 19.7829C38.9837 19.6377 37.5244 17.9735 35.8216 16.0849C34.1188 14.1962 32.5538 12.4509 32.3436 12.2067C31.8414 11.623 31.5438 11.6527 30.7511 12.3656ZM131.491 20.2045C131.419 20.2771 131.36 26.8321 131.36 34.7709V49.2052L132.441 49.7501C140.397 53.758 147.973 51.1856 149.905 43.8204C152.563 33.6866 145.671 25.469 136.982 28.4128C136.379 28.6173 135.842 28.7845 135.789 28.7845C135.736 28.7845 135.67 26.8481 135.642 24.4817L135.591 20.179L133.607 20.1257C132.516 20.0963 131.564 20.1319 131.491 20.2045ZM158.604 20.5695C156.669 21.1685 155.106 22.6808 154.272 24.7594L153.833 25.8529L153.78 38.4158C153.745 46.8694 153.791 51.018 153.922 51.0988C154.396 51.3937 157.823 51.3169 158.134 51.0044C158.41 50.7268 158.44 49.5421 158.44 38.882C158.44 27.4212 158.451 27.0448 158.818 26.3222C159.78 24.4258 162.495 24.439 163.611 26.3456C163.975 26.9667 163.989 27.3794 164.041 38.9906C164.082 48.1446 164.149 51.0296 164.323 51.1459C164.622 51.3456 168.029 51.279 168.454 51.0651C168.762 50.9102 168.784 50.1357 168.792 38.9437C168.803 24.7217 168.761 24.929 171.637 24.929C174.323 24.929 174.32 24.9124 174.385 39.1292C174.436 50.2133 174.464 51.0878 174.762 51.1686C175.033 51.242 178.351 51.2089 178.803 51.1283C178.884 51.1137 178.926 45.3785 178.897 38.3829L178.844 25.6638L178.252 24.4042C176.269 20.1824 171.258 18.9521 166.876 21.6111L166.191 22.0264L165.524 21.5144C163.959 20.3138 160.815 19.8845 158.604 20.5695ZM80.4369 33.3709L80.4915 46.09L81.0867 47.3534C83.149 51.7316 88.7559 53.0374 92.7325 50.0656C93.0939 49.7955 93.1659 49.8031 93.6158 50.159C97.5551 53.2753 103.702 51.4353 105.254 46.6752L105.691 45.3335V33.0399V20.7464L103.449 20.6929C100.645 20.6259 100.959 19.0894 100.946 32.949C100.934 46.139 100.994 45.4833 99.7057 46.4484C99.0393 46.9477 97.4259 46.953 96.6752 46.4583C95.505 45.687 95.5448 46.128 95.4418 32.8508L95.3478 20.7464L93.0507 20.6934L90.7536 20.6403L90.7 32.7033C90.6404 46.1088 90.7047 45.4428 89.3723 46.4418C88.6857 46.9564 87.1063 46.9757 86.3586 46.4785C85.1533 45.6773 85.1981 46.1799 85.1405 32.8035L85.0883 20.6518H82.7353H80.3826L80.4369 33.3709ZM59.6174 22.5649C57.2858 24.6716 57.3053 24.3594 59.3604 26.6603C61.4434 28.9925 61.2441 28.9821 63.5666 26.8784C65.9124 24.7537 65.8943 25.1458 63.7535 22.8208C61.5755 20.4553 61.9284 20.4771 59.6174 22.5649ZM47.3939 24.7123C43.7899 27.9769 43.8261 27.2171 47.1005 30.8655C50.3185 34.4507 49.6348 34.3058 52.2303 31.9524C53.4062 30.8863 54.7797 29.6511 55.2824 29.2078C56.1042 28.4832 56.1751 28.3587 55.984 27.9784C55.736 27.4842 50.8688 22.1287 50.5908 22.044C50.4874 22.0124 49.0488 23.2132 47.3939 24.7123ZM33.549 29.346C31.0245 31.608 29.5288 33.0798 29.5288 33.3019C29.5288 33.6255 35.806 40.8585 36.5667 41.4115C36.8561 41.622 37.3315 41.2592 40.5461 38.3755C42.5541 36.5744 44.3873 34.9373 44.6201 34.7376C44.8529 34.5379 45.0432 34.2625 45.0432 34.1257C45.0432 33.9048 38.8946 26.9372 37.9449 26.082C37.5773 25.751 37.4819 25.8217 33.549 29.346ZM116.247 28.1388C110.27 29.5938 107.294 37.3663 109.835 44.8809C111.98 51.2244 119.831 53.4743 126.994 49.7989C127.926 49.3208 127.935 49.2688 127.299 47.9609C126.601 46.5265 126.51 46.4827 125.322 47.0107C119.398 49.6434 114.384 47.5868 113.926 42.3365C113.775 40.6029 113.362 40.699 120.923 40.7098L127.505 40.7191L127.558 38.2564C127.717 30.7448 122.974 26.5013 116.247 28.1388ZM189.187 28.1019C183.729 29.4423 180.933 34.9702 181.929 42.4528C183.525 54.4464 199.788 54.8691 201.807 42.9694C203.5 32.9906 197.597 26.0366 189.187 28.1019ZM213.623 28.0949C213.203 28.2324 212.188 28.6778 211.366 29.0848C210.545 29.4916 209.809 29.8531 209.732 29.8877C209.654 29.9225 209.591 29.6953 209.591 29.3831C209.591 28.2521 209.529 28.2171 207.522 28.2171C205.209 28.2171 205.454 26.8674 205.454 39.6596C205.454 52.5048 205.177 51.102 207.71 51.102C210.234 51.102 209.967 52.2012 209.967 41.8287V33.1538L210.578 32.6936C213.36 30.5996 216.899 30.4715 218.518 32.4063C219.462 33.534 219.458 33.5014 219.558 42.4965L219.652 51.0075L221.767 51.061L223.883 51.1145V42.9068C223.883 32.7943 223.659 31.5048 221.57 29.6072C219.858 28.0516 215.998 27.3168 213.623 28.0949ZM233.493 28.1382C228.258 29.5541 225.375 36.0422 226.861 43.0639C228.48 50.7105 235.936 53.737 244.099 50.0605C245.576 49.3949 245.588 49.3588 244.834 47.8525C244.096 46.3796 244.188 46.4185 242.853 47.012C236.867 49.672 231.217 47.2104 231.444 42.0426L231.499 40.7943L238.435 40.7448L245.372 40.695L245.273 37.9078C245.005 30.3787 240.137 26.3413 233.493 28.1382ZM246.637 28.4847C246.637 28.7733 247.345 30.56 255.268 50.277L256.038 52.1944L255.569 53.6411C254.237 57.7436 252.262 58.8402 249.566 56.9744L248.64 56.3338L247.826 57.2641C246.683 58.5695 246.612 58.9737 247.409 59.6322C251.03 62.6241 256.003 61.5984 257.992 57.4497C258.522 56.3455 267.465 29.7532 267.648 28.7372L267.742 28.2171H265.834C264.475 28.2171 263.904 28.285 263.849 28.4535C263.806 28.5836 263.124 30.7325 262.333 33.2291C261.542 35.7256 260.352 39.4498 259.69 41.5051C259.027 43.5602 258.485 45.3638 258.485 45.513C258.485 46.5562 258.007 45.9291 257.484 44.1987C257.327 43.6786 255.845 39.8912 254.191 35.7824L251.185 28.3116L248.911 28.2585C247.007 28.2141 246.637 28.2509 246.637 28.4847ZM120.549 31.4068C122.095 32.1132 122.811 33.3034 123.104 35.6505C123.361 37.7128 123.674 37.588 118.401 37.5252L113.871 37.4715V36.7473C113.871 32.5552 117.213 29.8826 120.549 31.4068ZM142.319 31.4325C145.203 32.5179 146.132 35.7691 145.455 42.4071C144.899 47.8512 141.567 49.7681 136.543 47.5333L135.681 47.1495L135.73 39.7276L135.779 32.3057L137.566 31.7062C139.705 30.9882 140.948 30.9168 142.319 31.4325ZM194.272 31.5388C196.882 32.7806 198.031 37.3537 197.203 43.2029C196.332 49.356 188.655 50.455 186.878 44.681C186.403 43.1379 186.433 35.9354 186.92 34.553C187.983 31.5345 191.356 30.1515 194.272 31.5388ZM238.292 31.4631C239.841 32.1955 240.541 33.5591 240.654 36.066L240.714 37.39L236.059 37.4405L231.405 37.4912V36.4819C231.405 32.4073 234.901 29.8599 238.292 31.4631ZM64.7908 35.0056L62.8181 36.8665L63.9446 38.1344C64.5642 38.8317 65.3715 39.7464 65.7388 40.1668C66.5984 41.1509 66.6682 41.1276 68.9323 39.1079C71.1348 37.1432 71.132 37.4565 68.9703 35.0188C66.9579 32.7496 67.1815 32.7504 64.7908 35.0056ZM52.6944 37.8732C49.1535 41.0639 49.1859 40.3905 52.4022 43.9774C55.506 47.4389 55.0972 47.2974 57.0048 45.5699C57.8377 44.8157 59.1682 43.6183 59.9614 42.9088C61.7746 41.2874 61.8696 41.6547 58.7383 38.1762C55.5431 34.6268 56.2573 34.6625 52.6944 37.8732ZM42.1156 41.2265C41.4881 41.8209 39.6905 43.4564 38.1211 44.8607C34.6666 47.9517 34.5735 47.0745 38.8613 51.836C42.9019 56.3228 42.6598 56.1838 44.0877 54.8374C44.6668 54.2913 46.1958 52.9082 47.4857 51.764C48.7754 50.6197 50.1162 49.4068 50.465 49.0685L51.0993 48.4534L50.4874 47.7446C47.9985 44.8614 43.6321 40.1335 43.463 40.139C43.3496 40.1426 42.7433 40.6319 42.1156 41.2265ZM59.2552 49.4201C58.2285 50.3587 56.8957 51.5612 56.2934 52.0923C54.9695 53.2596 54.9612 53.3621 56.0914 54.5862C58.2736 56.95 60.1867 59.101 60.2442 59.2555C60.4725 59.8679 66.6565 54.8744 66.8139 53.9507C66.8415 53.7883 66.0985 52.814 65.1628 51.7857C64.227 50.7574 63.0265 49.4169 62.4947 48.8069C61.2892 47.424 61.4777 47.3882 59.2552 49.4201Z" fill="#EAC48B" fill-opacity="0.5"/>
</svg>
